<svg xmlns="http://www.w3.org/2000/svg" viewBox="0 0 256 256">
    <circle cx="128" cy="128" r="90" stroke="#FFF"/>
    <g fill="none" fill-rule="evenodd" stroke="null">
        <path
                stroke="#000" stroke-width="12"
                d="M181.2363 126.7318c.3348.3347.5022.7735.5022 1.2123 0 .4388-.1674.8775-.5022 1.2124l-52.024 52.0239a1.709 1.709 0 0 1-1.2123.5021 1.7092 1.7092 0 0 1-1.2123-.5021l-52.024-52.024a1.709 1.709 0 0 1-.5022-1.2123c0-.4388.1674-.8776.5022-1.2123l52.024-52.0241A1.7092 1.7092 0 0 1 128 74.2055c.4388 0 .8776.1674 1.2123.5022l52.024 52.024v.0001z"/>
        <path fill="#000" d="m180.6421 127.6749-52.699 55.1897V73.1354l52.699 54.5395z"/>
    </g>
</svg>